<?xml version="1.0" encoding="UTF-8"?>
<!DOCTYPE svg PUBLIC "-//W3C//DTD SVG 1.1//EN" "http://www.w3.org/Graphics/SVG/1.1/DTD/svg11.dtd">
<svg xmlns="http://www.w3.org/2000/svg" version="1.1" width="4096px" height="4096px" style="shape-rendering:geometricPrecision; text-rendering:geometricPrecision; image-rendering:optimizeQuality; fill-rule:evenodd; clip-rule:evenodd" xmlns:xlink="http://www.w3.org/1999/xlink">
<g><path style="opacity:0.976" fill="#000000" d="M 2007.5,732.5 C 2172.96,729.72 2334.63,751.886 2492.5,799C 2564.41,821.305 2634.07,849.305 2701.5,883C 2747.87,907.505 2791.87,935.505 2833.5,967C 2858.81,987.643 2882.48,1009.98 2904.5,1034C 2929.22,1054.05 2952.72,1075.55 2975,1098.5C 3079.78,1210.04 3154.12,1339.37 3198,1486.5C 3203.19,1506.32 3207.53,1526.32 3211,1546.5C 3211.9,1566.49 3214.57,1586.15 3219,1605.5C 3224.61,1645.53 3227.61,1685.86 3228,1726.5C 3229.06,1966.31 3230.73,2205.97 3233,2445.5C 3255.89,2613.78 3278.89,2782.11 3302,2950.5C 3319.14,3067.77 3335.47,3185.1 3351,3302.5C 3351.37,3303.42 3351.87,3304.25 3352.5,3305C 3339.59,3344.85 3312.09,3362.68 3270,3358.5C 3252.31,3359.39 3235.15,3356.89 3218.5,3351C 3183.06,3337.3 3148.06,3322.63 3113.5,3307C 3089.37,3293.77 3066.37,3278.77 3044.5,3262C 3000.54,3249.96 2957.54,3252.63 2915.5,3270C 2901.86,3276.43 2888.53,3283.43 2875.5,3291C 2859.84,3302.16 2843.84,3312.83 2827.5,3323C 2817.8,3327.79 2807.8,3331.79 2797.5,3335C 2775.91,3340.48 2754.24,3345.48 2732.5,3350C 2710.84,3352.56 2689.18,3354.4 2667.5,3355.5C 2643.86,3354.28 2620.2,3352.11 2596.5,3349C 2573.51,3343.25 2550.84,3336.25 2528.5,3328C 2514.5,3321 2500.5,3314 2486.5,3307C 2475.33,3299.25 2463.66,3292.25 2451.5,3286C 2439.09,3276.58 2426.42,3267.58 2413.5,3259C 2400.14,3254.04 2386.3,3251.2 2372,3250.5C 2359.46,3251.25 2346.96,3252.41 2334.5,3254C 2324.46,3256.79 2314.46,3259.79 2304.5,3263C 2274.46,3276.4 2246.46,3293.06 2220.5,3313C 2204.05,3321.89 2187.38,3330.23 2170.5,3338C 2155.94,3342.31 2141.27,3345.97 2126.5,3349C 2104.07,3351.29 2081.74,3353.45 2059.5,3355.5C 2056,3355.6 2052.66,3354.93 2049.5,3353.5C 2046.34,3354.93 2043,3355.6 2039.5,3355.5C 2022.34,3353.25 2005.01,3351.75 1987.5,3351C 1964.7,3347.84 1942.36,3342.5 1920.5,3335C 1906.53,3327.68 1892.53,3320.35 1878.5,3313C 1852.54,3293.06 1824.54,3276.4 1794.5,3263C 1784.54,3259.79 1774.54,3256.79 1764.5,3254C 1752.04,3252.41 1739.54,3251.25 1727,3250.5C 1712.7,3251.2 1698.86,3254.04 1685.5,3259C 1672.58,3267.58 1659.91,3276.58 1647.5,3286C 1635.34,3292.25 1623.67,3299.25 1612.5,3307C 1592.1,3317.81 1571.1,3327.47 1549.5,3336C 1506.99,3350.06 1463.33,3356.39 1418.5,3355C 1391.09,3354.13 1364.09,3350.47 1337.5,3344C 1333,3342.96 1328.66,3341.46 1324.5,3339.5C 1316.75,3338.43 1309.08,3336.93 1301.5,3335C 1291.2,3331.79 1281.2,3327.79 1271.5,3323C 1255.16,3312.83 1239.16,3302.16 1223.5,3291C 1202.73,3278.28 1180.73,3268.28 1157.5,3261C 1145.17,3258.93 1132.84,3256.93 1120.5,3255C 1110.5,3254.33 1100.5,3254.33 1090.5,3255C 1078.49,3257.24 1066.49,3259.57 1054.5,3262C 1028.22,3281.64 1000.55,3298.97 971.5,3314C 942.971,3325.28 914.638,3336.95 886.5,3349C 856.153,3358.96 825.153,3361.3 793.5,3356C 768.816,3347.32 753.15,3330.32 746.5,3305C 747.126,3304.25 747.626,3303.42 748,3302.5C 763.527,3185.1 779.86,3067.77 797,2950.5C 820.111,2782.11 843.111,2613.78 866,2445.5C 868.272,2205.97 869.938,1966.31 871,1726.5C 871.415,1693.62 873.415,1660.96 877,1628.5C 879.08,1609.27 882.08,1590.27 886,1571.5C 886.261,1563.13 886.928,1554.8 888,1546.5C 897.29,1497.35 910.956,1449.35 929,1402.5C 981.035,1275.91 1055.87,1164.75 1153.5,1069C 1166.55,1056.61 1180.22,1044.95 1194.5,1034C 1224.72,1001.44 1257.72,972.107 1293.5,946C 1340.85,913.817 1390.52,885.483 1442.5,861C 1586.47,797.335 1736.81,757.335 1893.5,741C 1911.25,739.636 1928.91,737.969 1946.5,736C 1966.99,734.738 1987.32,733.572 2007.5,732.5 Z M 2044.5,841.5 C 2097.05,844.134 2149.38,848.801 2201.5,855.5C 2216.37,858.59 2231.37,860.923 2246.5,862.5C 2267.85,866.737 2289.18,870.903 2310.5,875C 2330.79,880.256 2351.12,885.256 2371.5,890C 2396.16,897.331 2420.83,904.664 2445.5,912C 2470.45,920.54 2495.12,929.873 2519.5,940C 2559.31,956.572 2597.97,975.239 2635.5,996C 2680.05,1021.88 2721.22,1052.38 2759,1087.5C 2759.1,1090.45 2759.93,1093.12 2761.5,1095.5C 2772.28,1102.45 2781.62,1110.95 2789.5,1121C 2791.79,1121.82 2794.12,1122.49 2796.5,1123C 2911.29,1225.21 2993.46,1349.37 3043,1495.5C 3047.34,1511.54 3051.68,1527.54 3056,1543.5C 3062.09,1578.38 3067.42,1613.38 3072,1648.5C 3073.74,1673.97 3075.74,1699.3 3078,1724.5C 3079.11,1948.5 3080.11,2172.5 3081,2396.5C 3084.58,2416.12 3087.91,2435.79 3091,2455.5C 3099.23,2524.34 3108.23,2593.01 3118,2661.5C 3120.74,2678.43 3123.58,2695.43 3126.5,2712.5C 3135.32,2779.42 3144.15,2846.42 3153,2913.5C 3165.54,2992.78 3176.2,3072.44 3185,3152.5C 3186.81,3165.35 3189.48,3178.02 3193,3190.5C 3193.67,3192.5 3193.67,3194.5 3193,3196.5C 3166.89,3178.85 3138.72,3165.52 3108.5,3156.5C 3060.57,3142.01 3011.57,3132.84 2961.5,3129C 2962.99,3127.84 2962.83,3127.01 2961,3126.5C 2935.41,3129.24 2910.24,3134.41 2885.5,3142C 2880.28,3144.52 2874.95,3146.85 2869.5,3149C 2860.17,3155 2850.83,3161 2841.5,3167C 2827.46,3178.01 2813.46,3189.01 2799.5,3200C 2790.66,3205.25 2781.66,3210.25 2772.5,3215C 2766.09,3217.6 2759.42,3218.94 2752.5,3219C 2724.65,3230.8 2695.49,3236.64 2665,3236.5C 2640.28,3235.68 2616.44,3230.52 2593.5,3221C 2572.31,3212.14 2552.31,3201.14 2533.5,3188C 2531.29,3184.79 2528.29,3182.79 2524.5,3182C 2520.17,3179 2516.5,3175.33 2513.5,3171C 2494.54,3158.69 2474.2,3149.35 2452.5,3143C 2439.69,3140.98 2427.02,3138.31 2414.5,3135C 2389.51,3131.74 2364.51,3131.74 2339.5,3135C 2317.34,3139.03 2295.34,3143.69 2273.5,3149C 2235.51,3161.36 2200.51,3179.36 2168.5,3203C 2165.42,3203.35 2162.42,3204.01 2159.5,3205C 2137.85,3217.49 2115.18,3227.82 2091.5,3236C 2081.9,3237.71 2072.23,3238.88 2062.5,3239.5C 2053.83,3238.17 2045.17,3238.17 2036.5,3239.5C 2026.77,3238.88 2017.1,3237.71 2007.5,3236C 1983.82,3227.82 1961.15,3217.49 1939.5,3205C 1936.58,3204.01 1933.58,3203.35 1930.5,3203C 1890.18,3172.66 1845.18,3152.32 1795.5,3142C 1783.37,3140.3 1771.37,3137.97 1759.5,3135C 1736.87,3132.2 1714.2,3131.87 1691.5,3134C 1670.88,3137.71 1650.54,3142.38 1630.5,3148C 1618.89,3152.8 1607.56,3158.14 1596.5,3164C 1593,3166.58 1589.34,3168.92 1585.5,3171C 1582.5,3175.33 1578.83,3179 1574.5,3182C 1561.78,3190.54 1548.78,3198.87 1535.5,3207C 1511.01,3219.72 1485.35,3229.05 1458.5,3235C 1428.77,3237.72 1399.43,3235.38 1370.5,3228C 1362.44,3225.2 1354.44,3222.2 1346.5,3219C 1339.58,3218.94 1332.91,3217.6 1326.5,3215C 1317.34,3210.25 1308.34,3205.25 1299.5,3200C 1285.54,3189.01 1271.54,3178.01 1257.5,3167C 1248.17,3161 1238.83,3155 1229.5,3149C 1199.73,3135.83 1168.73,3128.66 1136.5,3127.5C 1136.71,3128.09 1137.04,3128.59 1137.5,3129C 1072.94,3133.82 1010.61,3147.82 950.5,3171C 934.965,3178.35 920.132,3186.85 906,3196.5C 905.333,3194.5 905.333,3192.5 906,3190.5C 909.525,3178.02 912.191,3165.35 914,3152.5C 922.797,3072.44 933.464,2992.78 946,2913.5C 954.849,2846.42 963.682,2779.42 972.5,2712.5C 975.422,2695.43 978.255,2678.43 981,2661.5C 990.767,2593.01 999.767,2524.34 1008,2455.5C 1011.09,2435.79 1014.42,2416.12 1018,2396.5C 1018.89,2172.5 1019.89,1948.5 1021,1724.5C 1023.26,1699.3 1025.26,1673.97 1027,1648.5C 1031.58,1613.38 1036.91,1578.38 1043,1543.5C 1047.32,1527.54 1051.66,1511.54 1056,1495.5C 1105.54,1349.37 1187.71,1225.21 1302.5,1123C 1304.88,1122.49 1307.21,1121.82 1309.5,1121C 1317.38,1110.95 1326.72,1102.45 1337.5,1095.5C 1339.07,1093.12 1339.9,1090.45 1340,1087.5C 1377.78,1052.38 1418.95,1021.88 1463.5,996C 1501.03,975.239 1539.69,956.572 1579.5,940C 1699.75,892.439 1824.41,862.106 1953.5,849C 1979.95,846.48 2006.45,844.646 2033,843.5C 2037.23,843.49 2041.06,842.823 2044.5,841.5 Z"/></g>
<g><path style="opacity:0.981" fill="#000000" d="M 1655.5,1501.5 C 1683.79,1499.76 1708.79,1507.93 1730.5,1526C 1748.5,1543.83 1762.67,1564.33 1773,1587.5C 1794.87,1642.8 1801.87,1700.13 1794,1759.5C 1788.96,1798.66 1777.3,1835.66 1759,1870.5C 1746.46,1892.38 1730.29,1911.22 1710.5,1927C 1660.97,1957.23 1616.47,1951.06 1577,1908.5C 1558.34,1884.85 1544.67,1858.52 1536,1829.5C 1527.85,1798.44 1523.35,1766.94 1522.5,1735C 1523.45,1703.76 1527.62,1672.92 1535,1642.5C 1544.29,1607.25 1559.96,1575.25 1582,1546.5C 1600.91,1522.14 1625.41,1507.14 1655.5,1501.5 Z"/></g>
<g><path style="opacity:0.981" fill="#000000" d="M 2420.5,1501.5 C 2456.77,1499.65 2486.94,1512.31 2511,1539.5C 2535.62,1567.91 2552.79,1600.41 2562.5,1637C 2576.66,1692.18 2578.99,1747.68 2569.5,1803.5C 2564.21,1829.04 2555.71,1853.37 2544,1876.5C 2529.83,1904 2509,1924.83 2481.5,1939C 2451.2,1949.96 2422.2,1947.29 2394.5,1931C 2371.38,1915.22 2353.22,1895.05 2340,1870.5C 2314.23,1821.19 2301.73,1768.52 2302.5,1712.5C 2301.2,1657.46 2314.03,1606.13 2341,1558.5C 2353.6,1538.57 2370.1,1522.74 2390.5,1511C 2395.61,1509.19 2400.61,1507.19 2405.5,1505C 2410.65,1503.88 2415.65,1502.71 2420.5,1501.5 Z"/></g>
</svg>
